# xmcd CD database file
#
# Track frame offsets:
#	150
#	12509
#	23795
#	34924
#	46336
#	57492
#	68708
#	79606
#	91748
#	103595
#	114238
#	124721
#	135055
#	145384
#	157343
#	170304
#	181733
#	193898
#	205985
#	219940
#	232864
#	243884
#	259005
#	272818
#	286023
#	297088
#	308771
#	321441
#
# Disc length: 4446 seconds
#
# Revision: 1
# Processed by: cddbd v1.5.2PL0 Copyright (c) Steve Scherf et al.
# Submitted via: CDex 1.77
#
DISCID=85115c1c
DTITLE=Jim Reeves - The Complete Abbott Recordings, Plus [CD3)
DYEAR=2014
DGENRE=Country
TTITLE0=Jim Reeves - Tahiti (take 3)
TTITLE1=Jim Reeves - Tahiti (master, take 4)
TTITLE2=Jim Reeves - Spanish Violins
TTITLE3=Jim Reeves - Hillbilly Waltz (take 1)
TTITLE4=Jim Reeves - Hillbilly Waltz (master, take 2)
TTITLE5=Hillbilly Waltz (take 3)
TTITLE6=Jim Reeves - Hillbilly Waltz (take 4)
TTITLE7=Jim Reeves - Padre Of Old San Antone (take 1)
TTITLE8=Jim Reeves - Padre Of Old San Antone (master, take 2)
TTITLE9=Jim Reeves - Beatin' On A Ding Dong (take 1)
TTITLE10=Jim Reeves - Beatin' On A Ding Dong (take 2)
TTITLE11=Jim Reeves - Beatin' On A Ding Dong (take 3)
TTITLE12=Jim Reeves - Beatin' On A Ding Dong (master, take 4)
TTITLE13=Jim Reeves - Mother Went A-Walkin' (master)
TTITLE14=Jim Reeves - Mother Went A-Walkin' (alternate)
TTITLE15=Jim Reeves - Penny Candy (take 1)
TTITLE16=Jim Reeves - Penny Candy (master and false start, take 2)
TTITLE17=Jim Reeves - I'll Follow You (take 3)
TTITLE18=I'll Follow You (take 4 and false start)
TTITLE19=Jim Reeves - I'll Follow You (master)
TTITLE20=Jim Reeves - Where Does A Broken Heart Go? (master, take 7)
TTITLE21=Jim Reeves - The Wilder Your Heart Beats The Sweeter You Love (take 5)
TTITLE22=Jim Reeves - The Wilder Your Heart Beats The Sweeter You Love (master, take 6)
TTITLE23=Jim Reeves - Drinking Tequila (master, false start and take 6)
TTITLE24=Jim Reeves - Red Eyed And Rowdy (master)
TTITLE25=Jim Reeves and Alvadean Coker - Are You The One (master)
TTITLE26=Jim Reeves - How Many (master, take 8)
TTITLE27=Jim Reeves - How Many (alternate)
EXTD=YEAR: 2014
EXTT0=
EXTT1=
EXTT2=
EXTT3=
EXTT4=
EXTT5=
EXTT6=
EXTT7=
EXTT8=
EXTT9=
EXTT10=
EXTT11=
EXTT12=
EXTT13=
EXTT14=
EXTT15=
EXTT16=
EXTT17=
EXTT18=
EXTT19=
EXTT20=
EXTT21=
EXTT22=
EXTT23=
EXTT24=
EXTT25=
EXTT26=
EXTT27=
PLAYORDER=
